<svg width="25" height="24" viewBox="0 0 25 24" fill="none" xmlns="http://www.w3.org/2000/svg"><path d="M10.7585 9.47686V8.63811C10.4673 8.59197 10.1733 8.5667 9.87849 8.56247C7.02482 8.55645 4.49835 10.4057 3.64143 13.1277C2.78451 15.8496 3.796 18.8127 6.13849 20.4425C4.3838 18.5646 3.89658 15.8308 4.89447 13.4623C5.89235 11.0938 8.18898 9.53292 10.7585 9.47686Z" fill="#25F4EE"></path><path d="M10.9165 18.9781C12.512 18.976 13.8235 17.719 13.8934 16.125V1.90062H16.4921C16.4391 1.60341 16.4138 1.3019 16.4165 1H12.8621V15.2106C12.803 16.8127 11.4884 18.0818 9.88525 18.0844C9.40617 18.0803 8.9349 17.9625 8.51025 17.7406C9.06845 18.514 9.96273 18.9739 10.9165 18.9781Z" fill="#25F4EE"></path><path d="M21.3458 6.72687V5.93625C20.3894 5.93658 19.4543 5.65435 18.6577 5.125C19.356 5.93674 20.2996 6.49905 21.3458 6.72687Z" fill="#25F4EE"></path><path d="M18.6578 5.12499C17.8732 4.23147 17.4406 3.08287 17.4409 1.89374H16.4922C16.7398 3.22246 17.5229 4.3909 18.6578 5.12499Z" fill="#FE2C55"></path><path d="M9.87839 12.1169C8.5092 12.1239 7.32051 13.0619 6.99532 14.3919C6.67013 15.722 7.29191 17.1026 8.50339 17.7406C7.84695 16.8343 7.75423 15.6365 8.26336 14.64C8.7725 13.6434 9.79747 13.0166 10.9165 13.0175C11.2149 13.0212 11.5112 13.0675 11.7965 13.155V9.53874C11.5052 9.49508 11.2111 9.47211 10.9165 9.46999H10.7584V12.22C10.4716 12.1431 10.1752 12.1084 9.87839 12.1169Z" fill="#FE2C55"></path><path d="M21.3462 6.72686V9.47686C19.5757 9.47344 17.8511 8.91302 16.4168 7.87499V15.1006C16.4092 18.7061 13.4842 21.625 9.87867 21.625C8.53967 21.6274 7.23292 21.2142 6.13867 20.4425C7.96482 22.4065 10.8068 23.0531 13.3029 22.0722C15.799 21.0914 17.4406 18.6831 17.4412 16.0012V8.79624C18.8803 9.82746 20.607 10.3806 22.3774 10.3775V6.83686C22.0308 6.83576 21.6852 6.7989 21.3462 6.72686Z" fill="#FE2C55"></path><path d="M16.4165 15.1006V7.87499C17.8552 8.90706 19.5822 9.46026 21.3527 9.45624V6.70624C20.3067 6.48535 19.3608 5.93038 18.6577 5.12499C17.5229 4.3909 16.7398 3.22246 16.4921 1.89374H13.8934V16.125C13.8414 17.3946 12.991 18.4921 11.7745 18.8593C10.558 19.2266 9.2424 18.7831 8.4965 17.7544C7.28502 17.1164 6.66324 15.7357 6.98843 14.4057C7.31362 13.0756 8.50231 12.1376 9.8715 12.1306C10.17 12.1333 10.4664 12.1796 10.7515 12.2681V9.51811C8.16758 9.56189 5.85359 11.1282 4.85287 13.5109C3.85215 15.8936 4.35375 18.6424 6.1315 20.5181C7.23654 21.2644 8.54519 21.651 9.87837 21.625C13.4839 21.625 16.4089 18.7062 16.4165 15.1006Z" fill="black"></path></svg>