<?xml version="1.0" encoding="UTF-8"?>
<svg id="katman_1" xmlns="http://www.w3.org/2000/svg" viewBox="0 0 429.06 104.85">
  <path d="M45.23,31.8v49.09h-16.13V31.8h16.13ZM78.26,31.8l-19.15,23,20.2,26.09h-18.66l-19.85-25.6,19.5-23.49h17.95Z" style="fill: #fff;"/>
  <path d="M78.97,45.69c1.4-3.18,3.34-5.91,5.82-8.21,2.48-2.29,5.38-4.04,8.7-5.26,3.32-1.21,6.9-1.82,10.73-1.82s7.55.61,10.87,1.82c3.32,1.22,6.22,2.97,8.7,5.26,2.48,2.29,4.39,5.03,5.75,8.21,1.36,3.18,2.03,6.73,2.03,10.66s-.67,7.52-2,10.76c-1.33,3.25-3.22,6.07-5.65,8.45s-5.32,4.22-8.66,5.51c-3.34,1.29-7.03,1.93-11.05,1.93s-7.7-.64-11.04-1.93c-3.34-1.29-6.23-3.12-8.66-5.51-2.43-2.38-4.31-5.2-5.65-8.45-1.33-3.25-2-6.84-2-10.76s.7-7.48,2.1-10.66ZM94.54,62.66c.89,1.82,2.15,3.24,3.79,4.24,1.64,1.01,3.6,1.51,5.89,1.51s4.25-.5,5.89-1.51c1.64-1,2.9-2.42,3.79-4.24.89-1.82,1.33-3.93,1.33-6.31s-.42-4.55-1.26-6.35c-.84-1.8-2.07-3.2-3.68-4.21-1.61-1-3.64-1.51-6.07-1.51-2.29,0-4.25.5-5.89,1.51-1.64,1.01-2.9,2.41-3.79,4.21-.89,1.8-1.33,3.92-1.33,6.35s.44,4.49,1.33,6.31Z" style="fill: #fff;"/>
  <path d="M167.68,31.8h18.23l-27.7,52.6-27.7-52.6h18.23l9.47,23.99,9.47-23.99Z" style="fill: #fff;"/>
  <path d="M199.17,67.64l1.19,3.51-5.33,9.75h-17.53l27.7-52.6,27.7,52.6h-17.53l-5.19-9.26,1.05-4-6.03-13.54-6.03,13.54ZM192.37,63.5h25.95v11.08h-25.95v-11.08Z" style="fill: #fff;"/>
  <path d="M283.4,31.8v51.55l-31.91-24.69v22.23h-14.73V29.35l31.91,24.69v-22.23h14.73Z" style="fill: #fff;"/>
  <path d="M287.61,31.8h43.48v13.68h-14.03v35.42h-15.43v-35.42h-14.03v-13.68Z" style="fill: #fff;"/>
  <path d="M351.08,31.8v49.09h-15.78V31.8h15.78ZM337.79,14.34c1.47-1.26,3.26-1.89,5.36-1.89s3.89.63,5.37,1.89c1.47,1.26,2.21,2.92,2.21,4.98s-.74,3.72-2.21,4.98-3.26,1.89-5.37,1.89-3.89-.63-5.36-1.89c-1.47-1.26-2.21-2.92-2.21-4.98s.74-3.72,2.21-4.98Z" style="fill: #fff;"/>
  <path d="M371,66.49c1.21,1.19,2.54,2.09,3.96,2.7,1.43.61,2.86.91,4.31.91,1.21,0,2.24-.25,3.09-.74.84-.49,1.26-1.27,1.26-2.35,0-.65-.22-1.22-.67-1.68-.44-.47-1.32-1-2.63-1.61-1.31-.61-3.3-1.43-5.96-2.45-1.17-.47-2.51-1.1-4.03-1.89s-2.97-1.82-4.35-3.09c-1.38-1.26-2.53-2.81-3.44-4.63-.91-1.82-1.37-3.97-1.37-6.45,0-3.23.87-5.94,2.6-8.14,1.73-2.2,4.02-3.86,6.87-4.98,2.85-1.12,5.98-1.68,9.4-1.68,3.69,0,6.86.56,9.5,1.68,2.64,1.12,4.81,2.52,6.52,4.21,1.71,1.68,3,3.37,3.89,5.05l-11.43,6.31c-.75-1.17-1.58-2.09-2.49-2.77s-1.84-1.18-2.77-1.51c-.94-.33-1.85-.49-2.74-.49-1.08,0-1.95.19-2.63.56s-1.02.96-1.02,1.75c0,.98.48,1.79,1.44,2.42.96.63,2.23,1.22,3.82,1.75,1.59.54,3.34,1.16,5.26,1.86,1.96.7,3.72,1.53,5.26,2.49,1.54.96,2.86,2.07,3.96,3.33,1.1,1.26,1.93,2.68,2.49,4.24.56,1.57.84,3.31.84,5.22,0,2.71-.56,5.11-1.68,7.19-1.12,2.08-2.63,3.8-4.52,5.15-1.89,1.36-4.03,2.38-6.42,3.09-2.38.7-4.84,1.05-7.36,1.05-3.51,0-6.77-.57-9.78-1.72s-5.62-2.72-7.82-4.73c-2.2-2.01-3.86-4.25-4.98-6.73l10.38-7.57c.93,1.64,2.01,3.05,3.23,4.24Z" style="fill: #fff;"/>
</svg>