<?xml version="1.0" encoding="UTF-8"?>
<svg id="katman_1" xmlns="http://www.w3.org/2000/svg" viewBox="0 0 96 114">
  <path d="M92.51,95.73c-1.04,1.02-2.12,2.01-3.23,2.95-2.03,1.74-4.18,3.35-6.42,4.83-10.08,6.63-22.14,10.49-35.11,10.49s-25.03-3.86-35.11-10.49c-2.24-1.47-4.39-3.09-6.42-4.83-1.11-.95-2.19-1.93-3.23-2.95,2.55-7.25,8.39-13.1,16.01-15.51l19.12-6.04v-3.16c-2.39-1.4-4.54-3.02-6.31-4.23-3.29-2.21-5.48-5.69-6.14-9.6l-1.02-6.1c-3.19,0-5.77-2.58-5.77-5.77v-13.47c0-7.96,3.23-15.18,8.44-20.41,5.23-5.21,12.43-8.45,20.41-8.45,15.93,0,28.86,12.93,28.86,28.86v13.47c0,3.19-2.58,5.77-5.77,5.77l-1.02,6.1c-.65,3.91-2.87,7.39-6.16,9.6-1.77,1.19-3.89,2.83-6.29,4.23v3.16l19.1,6.04c7.64,2.4,13.48,8.25,16.03,15.51Z" style="fill: #fff;"/>
</svg>