<?xml version="1.0" encoding="UTF-8"?>
<svg id="katman_1" xmlns="http://www.w3.org/2000/svg" viewBox="0 0 107 105">
  <circle cx="53.5" cy="52.5" r="49" style="fill: none; stroke: currentColor; stroke-miterlimit: 10; stroke-width: 8px;"/>
  <path d="M47.58,65.44c-3.5,1.33-7.01,2.66-10.51,3.98-1.49.56-3.01,1.05-4.48,1.68-1.28.54-1.85.08-2.24-1.13-.61-1.88-1.25-3.76-2.03-5.57-.59-1.37-.12-1.9,1.17-2.36,5.95-2.12,11.86-4.31,17.79-6.49.69-.25,1.36-.56,2.51-1.04-.97-.52-1.49-.82-2.03-1.08-3.69-1.72-7.37-3.49-11.1-5.13-1.4-.61-1.63-1.32-.93-2.64.89-1.69,1.69-3.44,2.43-5.21.52-1.24,1.2-1.42,2.38-.85,3.85,1.84,7.73,3.61,11.61,5.4.43.2.9.31,1.82.62-2.73-7.58-5.3-14.74-8.01-22.26,2.77-.94,5.3-1.79,7.82-2.67,1.17-.41,1.41.38,1.71,1.2,1.58,4.38,3.17,8.75,4.76,13.12.24.64.51,1.27.96,2.39.53-.95.88-1.49,1.15-2.07,2.49-5.32,5.02-10.63,7.41-15.99.73-1.63,1.5-1.92,3.03-1.07,1.66.93,3.43,1.67,5.18,2.44.97.43,1.15,1.01.71,1.96-4.16,8.91-8.29,17.84-12.49,26.73-.29.61-1,1.14-1.64,1.43-1.51.67-3.09,1.21-4.66,1.72-1.06.34-1.52.88-.97,1.97.03.06.03.13.07.18,2.5,4.14,1.44,7.9-.66,11.96-3.55,6.86-6.65,13.95-9.82,21-.74,1.65-1.52,1.89-3.02,1.06-1.56-.86-3.19-1.6-4.85-2.26-1.33-.53-1.52-1.21-.91-2.48,2.55-5.36,5.03-10.76,7.53-16.15.28-.61.57-1.22.85-1.82-.17-.19-.35-.38-.52-.57Z" style="stroke: #fff; stroke-miterlimit: 10; stroke-width: .25px;"/>
</svg>