<?xml version="1.0" encoding="UTF-8"?>
<svg id="katman_1" xmlns="http://www.w3.org/2000/svg" viewBox="0 0 587 737.6">
  <path d="M192.28,148.45c-12.75-19.09-25.49-38.19-38.27-57.26-5.44-8.11-11.28-15.96-16.38-24.28-4.44-7.24-8.94-6.99-15.22-2.32-9.71,7.22-19.6,14.28-29.91,20.58-7.81,4.77-7.34,9.06-2.55,15.93,22.13,31.7,43.84,63.7,65.65,95.62,2.54,3.72,4.79,7.64,8.82,14.09-6.67-.88-10.35-1.19-13.96-1.86-24.55-4.53-49.15-8.8-73.59-13.88-9.15-1.9-12.83.82-14.05,9.86-1.56,11.62-3.79,23.18-6.38,34.61-1.82,8.04.94,11.34,8.82,12.72,25.74,4.5,51.4,9.48,77.07,14.36,2.85.54,5.59,1.65,11.3,3.38-40.55,28.11-78.84,54.64-119.12,82.56,10.47,14.55,20.08,27.76,29.51,41.1,4.39,6.21,8.4,3.13,12.8.09,23.44-16.22,46.93-32.37,70.43-48.51,3.46-2.38,7.07-4.55,13.29-8.52-.72,6.61-.89,10.57-1.6,14.43-6.51,35.4-12.76,70.85-19.9,106.12-2.17,10.69.62,14.92,11.32,16.1,11.6,1.28,23.07,3.88,34.53,6.24,6.38,1.32,9.33-.93,10.5-7.27,10.91-59.25,22.08-118.45,32.76-177.74.73-4.05-.93-9.27-3.12-12.97-5.17-8.71-11.12-16.99-17.16-25.14-4.08-5.5-4.48-9.78,2.14-13.26.34-.18.61-.51.96-.66,27.21-11.74,35.26-34.28,39.21-62.01,6.68-46.82,16.46-93.21,25.69-139.64,2.16-10.87-.84-14.82-11.31-16.02-10.82-1.24-21.61-3.37-32.19-5.97-8.52-2.1-11.87.61-13.37,9.12-6.33,35.82-13.18,71.56-19.85,107.32-.75,4.04-1.5,8.08-2.25,12.12-1.54.33-3.08.65-4.61.98Z" style="fill: white;"/>
  <rect x="181.67" y="469.17" width="251.23" height="197.31" transform="translate(950.38 510.61) rotate(113.34)" style="fill: white;"/>
  <circle cx="405.76" cy="272.08" r="165.5" style="fill: white;"/>
</svg>